<svg width="24" height="16" viewBox="0 0 24 16" fill="none" xmlns="http://www.w3.org/2000/svg">
<rect width="24" height="16" rx="8" fill="#E33939"/>
<path d="M5.56706 12H11.1711V10.944H6.79106V10.932L7.22306 10.596C9.56306 8.772 11.0511 7.668 11.0511 5.868C11.0511 4.248 9.77906 3.504 8.30306 3.504C7.63106 3.504 6.79106 3.612 5.86706 3.996V5.148C6.45506 4.824 7.18706 4.56 8.11106 4.56C9.19106 4.56 9.89906 5.028 9.89906 6.06C9.89906 7.212 8.95106 8.076 7.05506 9.588C6.53906 9.996 6.07106 10.38 5.56706 10.8V12ZM15.336 3.48C13.632 3.48 12.66 4.668 12.66 6.228C12.66 7.86 13.704 8.868 15.204 8.868C16.2 8.868 16.824 8.436 17.196 7.872C17.22 9.708 16.548 11.064 14.892 11.064C14.4 11.064 13.764 10.968 13.308 10.788V11.892C13.764 12.048 14.388 12.12 14.904 12.12C17.304 12.12 18.24 10.152 18.24 7.5C18.24 5.592 17.544 3.48 15.336 3.48ZM15.324 4.44C16.428 4.44 16.968 5.244 16.968 6.228C16.968 7.176 16.38 7.884 15.324 7.884C14.292 7.884 13.812 7.152 13.812 6.228C13.812 5.22 14.316 4.44 15.324 4.44Z" fill="white"/>
</svg>
