<svg width="24" height="16" viewBox="0 0 24 16" fill="none" xmlns="http://www.w3.org/2000/svg">
<rect width="24" height="16" rx="8" fill="#47B091"/>
<path d="M9.27506 12H10.3551V10.032H11.6391V9.048H10.3551V3.6H8.75906L5.29106 9.036V10.032H9.27506V12ZM6.50306 9.048L9.25106 4.668H9.27506V9.048H6.50306ZM14.712 12.096C16.8 12.096 18.156 11.148 18.156 9.264C18.156 7.62 16.992 6.672 15.192 6.672C14.796 6.672 14.544 6.708 14.112 6.792L14.232 4.656H17.676V3.6H13.284L13.044 7.968C13.596 7.764 14.34 7.656 14.892 7.656C16.176 7.656 17.004 8.112 17.004 9.288C17.004 10.536 16.128 11.064 14.592 11.064C13.98 11.064 13.572 10.968 12.78 10.692V11.784C13.38 12 14.076 12.096 14.712 12.096Z" fill="white"/>
</svg>
